<svg width="270" height="57" viewBox="0 0 270 57" fill="none" xmlns="http://www.w3.org/2000/svg">
<path d="M3.39148 21.8391C6.19309 10.7012 15.925 2.47512 27.5001 2.47512C39.0751 2.47512 48.807 10.7012 51.6824 21.8391H53.8942C51.0188 9.53643 40.2547 0.364014 27.5001 0.364014C14.7454 0.364014 4.05502 9.53643 1.10596 21.8391H3.39148Z" fill="#F79E22"/>
<path d="M54.3365 22.1303H51.3874L51.3137 21.8391C48.4384 10.7011 38.6327 2.83908 27.5 2.83908C16.3673 2.83908 6.5617 10.7011 3.68636 21.9119L3.61264 22.2031H0.663574L0.737301 21.7663C3.83382 8.95402 14.8191 0 27.5 0C40.181 0 51.1663 8.95402 54.189 21.6935L54.3365 22.1303ZM51.9772 21.4751H53.4518C50.3553 9.17241 39.7386 0.655172 27.5 0.655172C15.2614 0.655172 4.64481 9.17241 1.54829 21.4023H3.02282C6.11934 10.046 16.1461 2.11111 27.5 2.11111C38.9276 2.11111 48.8807 10.046 51.9772 21.4751Z" fill="#F79E22"/>
<path d="M15.5563 38.5823H11.4276V26.5708H13.0496V36.9808H15.5563V38.5823Z" fill="#1A3033"/>
<path d="M15.8512 38.8006H11.2064V26.2795H13.3445V36.6895H15.8512V38.8006ZM11.7225 38.291H15.3351V37.1991H12.8284V26.7891H11.7225V38.291Z" fill="#1A3033"/>
<path d="M14.4525 40.1517L12.8854 40.5642L14.5947 46.8945L16.1618 46.4819L14.4525 40.1517Z" fill="#1A3033"/>
<path d="M14.3766 47.2451L12.5334 40.4022L14.5978 39.8198L16.441 46.6627L14.3766 47.2451ZM13.197 40.7662L14.7452 46.5899L15.7774 46.2987L14.2292 40.475L13.197 40.7662Z" fill="#1A3033"/>
<path d="M12.7548 25.9886H9.21593C8.47867 25.9886 7.81513 25.3334 7.81513 24.6055C7.81513 23.8775 8.47867 23.2223 9.21593 23.2223H12.6811C12.7548 22.8583 12.7548 22.4944 12.8285 22.1304H9.21593C7.81513 22.1304 6.70923 23.2223 6.70923 24.6055C6.70923 25.9886 7.81513 27.0806 9.21593 27.0806H12.7548V25.9886Z" fill="#1A3033"/>
<path d="M13.0497 27.2988H9.28965C7.74139 27.2988 6.56177 26.0613 6.56177 24.6054C6.56177 23.1494 7.81512 21.9119 9.28965 21.9119H13.1972L13.1234 22.2031C13.0497 22.4214 13.0497 22.567 13.0497 22.7854C13.0497 22.931 13.0497 23.0766 12.976 23.2222V23.4406H9.28965C8.69984 23.4406 8.18375 23.9502 8.18375 24.5326C8.18375 25.1149 8.69984 25.6245 9.28965 25.6245H13.0497V27.2988ZM9.28965 22.4214C8.0363 22.4214 7.07785 23.3678 7.07785 24.6054C7.07785 25.8429 8.0363 26.7893 9.28965 26.7893H12.5336V26.2069H9.28965C8.40493 26.2069 7.59394 25.4789 7.59394 24.5326C7.59394 23.659 8.33121 22.8582 9.28965 22.8582H12.5336C12.5336 22.7854 12.5336 22.7126 12.5336 22.6398C12.5336 22.4942 12.5336 22.4214 12.5336 22.2758H9.28965V22.4214Z" fill="#1A3033"/>
<path d="M13.0497 27.2988H9.28965C7.74139 27.2988 6.56177 26.0613 6.56177 24.6054C6.56177 23.0766 7.81512 21.9119 9.28965 21.9119H13.1972L13.1234 22.2031C13.0497 22.4214 13.0497 22.567 13.0497 22.7854C13.0497 22.931 13.0497 23.0766 12.976 23.2222V23.4406H9.28965C8.69984 23.4406 8.18375 23.9502 8.18375 24.5326C8.18375 25.1149 8.69984 25.6245 9.28965 25.6245H13.0497V27.2988ZM9.28965 22.4214C8.0363 22.4214 7.07785 23.3678 7.07785 24.6054C7.07785 25.7701 8.0363 26.7893 9.28965 26.7893H12.5336V26.2797H9.28965C8.40493 26.2797 7.59394 25.5517 7.59394 24.6054C7.59394 23.7318 8.33121 22.931 9.28965 22.931H12.5336C12.5336 22.8582 12.5336 22.7854 12.5336 22.7126C12.5336 22.567 12.5336 22.4942 12.5336 22.3486H9.28965V22.4214Z" fill="#1A3033"/>
<path d="M13.3446 27.59H9.28963C7.59392 27.59 6.26685 26.2796 6.26685 24.6053C6.26685 22.9309 7.59392 21.6206 9.28963 21.6206H13.5658L13.4183 22.2758C13.3446 22.4214 13.3446 22.6398 13.3446 22.8582C13.3446 23.0037 13.3446 23.1493 13.2709 23.3677L13.1971 23.8045H9.28963C8.84727 23.8045 8.40492 24.1685 8.40492 24.6781C8.40492 25.1149 8.77355 25.5516 9.28963 25.5516H13.2709L13.3446 27.59ZM9.28963 22.1302C7.88883 22.1302 6.78293 23.2221 6.78293 24.6053C6.78293 25.9884 7.88883 27.0804 9.28963 27.0804H12.8285V25.9884H9.28963C8.55237 25.9884 7.88883 25.406 7.88883 24.6053C7.88883 23.8773 8.47864 23.2221 9.28963 23.2221H12.7548C12.7548 23.0765 12.7548 22.9309 12.8285 22.7854C12.8285 22.567 12.8285 22.3486 12.9022 22.1302H9.28963ZM12.7548 27.0804H9.21591C7.88883 27.0804 6.70921 25.9884 6.70921 24.6781C6.70921 23.3677 7.8151 22.2758 9.21591 22.2758H12.8285V22.567C12.8285 22.6398 12.8285 22.7854 12.8285 22.8582L12.7548 23.2949H9.28963C8.47864 23.2949 7.88883 23.9501 7.88883 24.6781C7.88883 25.406 8.55237 26.0612 9.28963 26.0612H12.7548V27.0804ZM9.28963 22.7126C8.18374 22.7126 7.37274 23.5861 7.37274 24.6053C7.37274 25.6972 8.25746 26.498 9.28963 26.498H12.2387H9.28963C8.25746 26.498 7.37274 25.6244 7.37274 24.6053C7.37274 23.5861 8.18374 22.7126 9.28963 22.7126H12.3124H9.28963Z" fill="#1A3033"/>
<path d="M17.252 41.5671H14.008C12.6072 41.5671 11.4276 40.2568 11.4276 38.728C11.4276 38.2912 11.5013 37.8545 11.6488 37.4905L13.1233 38.1457C13.0496 38.364 12.9759 38.5096 12.9759 38.728C12.9759 39.3832 13.4182 39.9656 13.9343 39.9656H17.1783V41.5671H17.252Z" fill="#1A3033"/>
<path d="M17.4732 41.8582H14.008C12.4598 41.8582 11.1327 40.4751 11.1327 38.728C11.1327 38.2912 11.2064 37.7816 11.4276 37.4176L11.5013 37.1992L13.4919 38L13.4182 38.2184C13.3445 38.364 13.3445 38.5096 13.3445 38.728C13.3445 39.2375 13.7131 39.7471 14.0818 39.7471H17.5469V41.8582H17.4732ZM11.7962 37.7816C11.7225 38.0728 11.6488 38.364 11.6488 38.6552C11.6488 40.1111 12.6809 41.2758 14.008 41.2758H16.9571V40.1839H14.008C13.3445 40.1839 12.7547 39.5287 12.7547 38.6552C12.7547 38.5096 12.7547 38.364 12.8284 38.2184L11.7962 37.7816Z" fill="#1A3033"/>
<path d="M12.9759 22.1304C14.3767 15.4331 20.3485 10.4101 27.5738 10.4101C34.7252 10.4101 40.7708 15.4331 42.1716 22.1304H43.2775C41.8767 14.8507 35.3888 9.31812 27.5738 9.31812C19.7587 9.31812 13.2708 14.8507 11.87 22.1304H12.9759Z" fill="#1A3033"/>
<path d="M43.4987 22.4214H41.8767L41.8029 22.2031C40.4021 15.5057 34.4303 10.7011 27.5 10.7011C20.5697 10.7011 14.5979 15.5785 13.1971 22.2031L13.1233 22.4214H11.5013L11.5751 22.1303C13.0496 14.5594 19.7587 9.09961 27.5 9.09961C35.2413 9.09961 42.0241 14.5594 43.4249 22.1303L43.4987 22.4214ZM42.319 21.9119H42.9088C41.3606 14.7778 34.9464 9.60919 27.5737 9.60919C20.1273 9.60919 13.7131 14.7778 12.2386 21.9119H12.8284C14.2292 15.069 20.4223 10.1916 27.5 10.1916C34.5777 10.1916 40.7708 15.069 42.319 21.9119Z" fill="#1A3033"/>
<path d="M43.4249 22.3486H41.9504V22.203C40.5496 15.5057 34.504 10.6283 27.5737 10.6283C20.6434 10.6283 14.5979 15.5057 13.1971 22.203V22.3486H11.7225L11.7963 22.1302C13.2708 14.6321 19.9062 9.17236 27.6475 9.17236C35.3888 9.17236 42.0979 14.6321 43.4987 22.1302L43.4249 22.3486ZM42.2453 21.9846H42.9089C41.4343 14.7777 34.9464 9.60914 27.5 9.60914C20.0536 9.60914 13.5657 14.7777 12.0912 21.9846H12.7547C14.2292 15.1417 20.4223 10.2643 27.5 10.2643C34.5778 10.1915 40.7708 15.1417 42.2453 21.9846Z" fill="#1A3033"/>
<path d="M43.7936 22.6397H41.7292L41.6555 22.2757C40.2547 15.6512 34.3566 10.9194 27.5 10.9194C20.7171 10.9194 14.7453 15.724 13.3445 22.2757L13.2708 22.6397H11.2064L11.2801 22.0573C12.7547 14.4137 19.5375 8.8811 27.4263 8.8811C35.315 8.8811 42.0978 14.4137 43.5724 22.0573L43.7936 22.6397ZM42.4665 21.6934H42.6139C40.9919 14.7777 34.7252 9.82746 27.5 9.82746C20.2748 9.82746 14.008 14.7777 12.386 21.6934H12.5335C14.1555 14.8505 20.3485 9.97306 27.5 9.97306C34.6515 9.97306 40.8445 14.8505 42.4665 21.6934Z" fill="#1A3033"/>
<path d="M54.6314 25.6245H42.3928V27.3716H54.6314V25.6245Z" fill="#1A3033"/>
<path d="M54.9263 27.6627H42.1716V25.406H54.9263V27.6627ZM42.6877 27.1531H54.4102V25.9156H42.6877V27.1531Z" fill="#1A3033"/>
<path d="M18.6527 35.2337H17.0308V25.1877H24.772V26.7893H18.6527V35.2337Z" fill="#1A3033"/>
<path d="M18.9476 35.5248H16.8096V24.8965H25.0669V27.0076H19.0214V35.5248H18.9476ZM17.3257 35.0153H18.4316V26.498H24.4771V25.4061H17.3257V35.0153Z" fill="#1A3033"/>
<path d="M24.7719 25.3963L23.1746 25.6748L26.2388 42.8088L27.8361 42.5303L24.7719 25.3963Z" fill="#1A3033"/>
<path d="M26.0255 43.1684L22.8552 25.4787L24.9933 25.1147L28.1635 42.8044L26.0255 43.1684ZM23.445 25.9155L26.3941 42.586L27.5 42.3676L24.5509 25.6971L23.445 25.9155Z" fill="#1A3033"/>
<path d="M31.3527 30.0964L29.1616 42.5769L30.7598 42.8504L32.9509 30.37L31.3527 30.0964Z" fill="#1A3033"/>
<path d="M30.9652 43.1686L28.8271 42.8046L31.1127 29.7739L33.2507 30.1379L30.9652 43.1686ZM29.417 42.3678L30.5229 42.5862L32.6609 30.5747L31.555 30.3563L29.417 42.3678Z" fill="#1A3033"/>
<path d="M41.1394 42.8772L39.5175 42.586L42.3928 25.9155L43.941 26.7891L41.1394 42.8772Z" fill="#1A3033"/>
<path d="M41.3606 43.1684L39.2225 42.8044L42.1716 25.4788L44.1622 26.6435L41.3606 43.1684ZM39.8123 42.3676L40.9182 42.586L43.6461 26.9347L42.614 26.2795L39.8123 42.3676Z" fill="#1A3033"/>
<path d="M36.0385 30.0867L34.4407 30.3618L36.6446 42.8397L38.2424 42.5646L36.0385 30.0867Z" fill="#1A3033"/>
<path d="M36.4209 43.1686L34.1354 30.1379L36.2734 29.7739L38.559 42.8046L36.4209 43.1686ZM34.7252 30.5747L36.8633 42.5862L37.9692 42.3678L35.8311 30.3563L34.7252 30.5747Z" fill="#1A3033"/>
<path d="M28.4585 44.6244C27.3526 44.6244 26.3942 43.8237 26.173 42.6589L27.795 42.3677C27.8687 42.7317 28.1636 43.0229 28.5322 43.0229C28.9009 43.0229 29.1958 42.7317 29.2695 42.2949L30.8915 42.5861C30.5966 43.7509 29.6381 44.6244 28.4585 44.6244Z" fill="#1A3033"/>
<path d="M28.4585 44.8427C27.2051 44.8427 26.0992 43.8963 25.878 42.6588L25.8043 42.4404L27.9424 42.0764L28.0161 42.2948C28.0898 42.586 28.2373 42.8044 28.4585 42.8044C28.6797 42.8044 28.9008 42.586 28.9008 42.2948L28.9746 42.0764L31.1126 42.4404L31.0389 42.6588C30.8177 43.8963 29.7856 44.8427 28.4585 44.8427ZM26.4679 42.8044C26.7628 43.6779 27.5738 44.3331 28.4585 44.3331C29.4169 44.3331 30.2279 43.6779 30.4491 42.7316L29.3432 42.5132C29.1957 42.8772 28.8271 43.1684 28.4585 43.1684C28.0898 43.1684 27.7212 42.8772 27.5738 42.5132L26.4679 42.8044Z" fill="#1A3033"/>
<path d="M38.8539 44.6244C37.8217 44.6244 36.8633 43.8964 36.5684 42.8045L38.1166 42.3677C38.1903 42.7317 38.4853 43.0228 38.8539 43.0228C39.1488 43.0228 39.4437 42.8045 39.5911 42.4405L41.1394 42.9501C40.7708 43.8964 39.8861 44.6244 38.8539 44.6244Z" fill="#1A3033"/>
<path d="M38.8539 44.8427C37.6742 44.8427 36.6421 44.0419 36.3472 42.8044L36.2734 42.586L38.3378 42.0764L38.4115 42.2948C38.4852 42.5132 38.7064 42.7316 38.8539 42.7316C39.075 42.7316 39.2225 42.586 39.2962 42.3676L39.37 42.1492L41.4343 42.8044L41.3606 43.0228C40.9919 44.1147 40.0335 44.8427 38.8539 44.8427ZM36.937 42.95C37.2319 43.7507 38.0429 44.3331 38.8539 44.3331C39.6649 44.3331 40.4021 43.8235 40.7708 43.0956L39.7386 42.7316C39.5174 43.0228 39.2225 43.2412 38.9276 43.2412C38.559 43.2412 38.2641 43.0228 38.0429 42.6588L36.937 42.95Z" fill="#1A3033"/>
<path d="M34.504 31.0115L34.3565 30.3563C34.2828 29.9923 33.9879 29.7011 33.6193 29.7011C33.2506 29.7011 32.9557 29.9923 32.882 30.4291L31.26 30.1379C31.4812 28.9732 32.4396 28.0996 33.6193 28.0996C34.7252 28.0996 35.6836 28.9004 35.9048 30.0651L36.0522 30.7203L34.504 31.0115Z" fill="#1A3033"/>
<path d="M34.2828 31.3026L34.1353 30.3563C34.0616 30.0651 33.9142 29.8467 33.693 29.8467C33.4718 29.8467 33.2506 30.0651 33.2506 30.3563L33.1769 30.6475L31.0388 30.2835L31.1125 29.9923C31.3337 28.682 32.4396 27.7356 33.693 27.7356C34.9463 27.7356 36.0522 28.682 36.2734 29.9195L36.4209 30.8659L34.2828 31.3026ZM33.693 29.4099C34.1353 29.4099 34.5777 29.7739 34.6514 30.2835L34.7251 30.7203L35.831 30.5019L35.7573 30.0651C35.5361 29.0459 34.7251 28.318 33.693 28.318C32.7345 28.318 31.9235 28.9731 31.7024 29.9195L32.8083 30.1379C32.882 29.7011 33.2506 29.4099 33.693 29.4099Z" fill="#1A3033"/>
<path d="M52.4933 27.3716C52.4933 27.7356 52.4933 28.0996 52.4933 28.4635C52.4933 42.8045 41.2869 54.452 27.5 54.452C13.7132 54.452 2.50672 42.8045 2.50672 28.4635C2.50672 28.0996 2.50672 27.7356 2.50672 27.3716H0.368652C0.368652 27.7356 0.368652 28.0996 0.368652 28.4635C0.368652 43.9693 12.5335 56.636 27.5 56.636C42.4665 56.636 54.6314 44.0421 54.6314 28.4635C54.6314 28.0996 54.6314 27.7356 54.6314 27.3716H52.4933Z" fill="#1A3033"/>
<path d="M27.5 56.9999C12.3123 56.9999 0 44.1876 0 28.4635C0 28.0995 0 27.7355 0 27.3716V27.0076H2.87534V27.3716C2.87534 27.7355 2.87534 28.0995 2.87534 28.4635C2.87534 42.5861 13.9343 54.1608 27.5 54.1608C41.0657 54.1608 52.1247 42.6589 52.1247 28.4635C52.1247 28.0995 52.1247 27.7355 52.1247 27.3716V27.0076H55V27.3716C55 27.7355 55 28.0995 55 28.4635C55 44.1876 42.6877 56.9999 27.5 56.9999ZM0.737265 27.7355C0.737265 28.0267 0.737265 28.2451 0.737265 28.5363C0.737265 43.8965 12.7547 56.3447 27.5737 56.3447C42.3928 56.3447 54.4102 43.8965 54.4102 28.5363C54.4102 28.2451 54.4102 28.0267 54.4102 27.7355H52.9357C52.9357 28.0267 52.9357 28.2451 52.9357 28.5363C52.9357 43.0957 41.5818 54.8888 27.5737 54.8888C13.5657 54.8888 2.2118 43.0957 2.2118 28.5363C2.2118 28.2451 2.2118 28.0267 2.2118 27.7355H0.737265Z" fill="#1A3033"/>
<path d="M42.1715 46.2988H12.8284V47.9004H42.1715V46.2988Z" fill="#F79E22"/>
<path d="M42.5402 48.2643H12.5334V46.0076H42.5402V48.2643ZM13.197 47.5363H41.8029V46.5899H13.197V47.5363Z" fill="#F79E22"/>
<path d="M84.92 14.352V12.96H75.464V14.352H79.32V24H81.064V14.352H84.92ZM92.3379 19.536C92.3379 17.136 91.0099 15.28 88.5459 15.28C86.0979 15.28 84.3859 17.088 84.3859 19.776C84.3859 22.784 86.0979 24.224 88.3699 24.224C90.2259 24.224 91.8419 23.264 92.2099 21.248H90.4339C90.2579 22.32 89.4579 22.944 88.4339 22.944C87.2819 22.944 86.3539 22.272 86.2099 20.24H92.3059C92.3379 19.936 92.3379 19.696 92.3379 19.536ZM88.4819 16.56C89.7139 16.56 90.4019 17.44 90.5299 19.008H86.2259C86.4179 17.376 87.2819 16.56 88.4819 16.56ZM97.8023 15.296C97.3703 15.296 96.8743 15.472 96.4903 15.776L95.7703 16.944V15.504H94.0103V24H95.7703V19.584C95.7703 17.488 96.7783 16.656 98.3943 16.768V15.392C98.2183 15.328 98.0423 15.296 97.8023 15.296ZM104.547 24H106.291C106.163 23.056 106.131 22.48 106.131 21.84V18.848C106.131 18.448 106.115 18 106.083 17.648C105.939 16.208 105.075 15.28 102.883 15.28C100.947 15.28 99.5549 16.336 99.4429 18.192H101.203C101.299 17.136 101.827 16.56 102.851 16.56C103.859 16.56 104.291 17.04 104.339 17.728C104.371 18.048 104.371 18.336 104.371 18.656V18.864H103.827C100.611 18.864 99.1069 19.888 99.1069 21.776C99.1069 23.36 100.339 24.224 101.843 24.224C102.643 24.224 103.379 24.08 103.955 23.68L104.387 22.768L104.547 24ZM102.483 22.944C101.555 22.944 100.963 22.528 100.963 21.632C100.963 20.336 102.307 19.872 104.371 20.032V20.816C104.371 22.192 103.587 22.944 102.483 22.944ZM120.114 15.504H118.242L116.498 22.448L114.802 15.52H112.658L111.01 22.432L109.266 15.504H107.282L109.986 24H112.018L113.714 17.136L115.394 24H117.41L120.114 15.504ZM126.156 24H127.9C127.772 23.056 127.74 22.48 127.74 21.84V18.848C127.74 18.448 127.724 18 127.692 17.648C127.548 16.208 126.684 15.28 124.492 15.28C122.556 15.28 121.164 16.336 121.052 18.192H122.812C122.908 17.136 123.436 16.56 124.46 16.56C125.468 16.56 125.9 17.04 125.948 17.728C125.98 18.048 125.98 18.336 125.98 18.656V18.864H125.436C122.22 18.864 120.716 19.888 120.716 21.776C120.716 23.36 121.948 24.224 123.452 24.224C124.252 24.224 124.988 24.08 125.564 23.68L125.996 22.768L126.156 24ZM124.092 22.944C123.164 22.944 122.572 22.528 122.572 21.632C122.572 20.336 123.916 19.872 125.98 20.032V20.816C125.98 22.192 125.196 22.944 124.092 22.944ZM132.075 16.8H133.739V15.568H132.075V13.536H130.331V15.568H129.131V16.8H130.331V21.408C130.331 21.888 130.331 22.256 130.347 22.544C130.427 23.664 131.003 24.16 132.331 24.16C132.763 24.16 133.179 24.128 133.627 24.064V22.848C132.475 22.96 132.155 22.784 132.091 21.952C132.075 21.728 132.075 21.536 132.075 21.248V16.8ZM137.434 16.8H139.098V15.568H137.434V13.536H135.69V15.568H134.49V16.8H135.69V21.408C135.69 21.888 135.69 22.256 135.706 22.544C135.786 23.664 136.362 24.16 137.69 24.16C138.122 24.16 138.538 24.128 138.986 24.064V22.848C137.834 22.96 137.514 22.784 137.45 21.952C137.434 21.728 137.434 21.536 137.434 21.248V16.8ZM152.811 14.352V12.96H143.355V14.352H147.211V24H148.955V14.352H152.811ZM160.229 19.536C160.229 17.136 158.901 15.28 156.437 15.28C153.989 15.28 152.277 17.088 152.277 19.776C152.277 22.784 153.989 24.224 156.261 24.224C158.117 24.224 159.733 23.264 160.101 21.248H158.325C158.149 22.32 157.349 22.944 156.325 22.944C155.173 22.944 154.245 22.272 154.101 20.24H160.197C160.229 19.936 160.229 19.696 160.229 19.536ZM156.373 16.56C157.605 16.56 158.293 17.44 158.421 19.008H154.117C154.309 17.376 155.173 16.56 156.373 16.56ZM164.637 15.28C162.749 15.28 161.501 16.24 161.501 17.824C161.501 19.312 162.653 19.968 164.205 20.368C165.645 20.752 166.221 21.152 166.221 21.888C166.221 22.624 165.565 22.976 164.749 22.976C163.869 22.976 163.149 22.544 162.941 21.456H161.165C161.405 23.376 162.797 24.224 164.685 24.224C166.541 24.224 167.997 23.408 167.997 21.76C167.997 20.256 167.021 19.52 165.165 19.04C163.901 18.704 163.277 18.384 163.277 17.616C163.277 16.976 163.677 16.512 164.509 16.512C165.373 16.512 165.901 17.04 166.077 17.936H167.869C167.677 16.384 166.589 15.28 164.637 15.28ZM171.606 16.8H173.27V15.568H171.606V13.536H169.862V15.568H168.662V16.8H169.862V21.408C169.862 21.888 169.862 22.256 169.878 22.544C169.958 23.664 170.534 24.16 171.862 24.16C172.294 24.16 172.71 24.128 173.158 24.064V22.848C172.006 22.96 171.686 22.784 171.622 21.952C171.606 21.728 171.606 21.536 171.606 21.248V16.8ZM175.75 12.544C175.158 12.544 174.726 12.976 174.726 13.552C174.726 14.144 175.158 14.576 175.75 14.576C176.342 14.576 176.79 14.144 176.79 13.552C176.79 12.976 176.342 12.544 175.75 12.544ZM176.63 24V15.504H174.87V24H176.63ZM186.389 17.712C186.229 16.224 185.189 15.28 183.365 15.28C182.517 15.28 181.893 15.424 181.221 15.936L180.645 16.912V15.504H178.885V24H180.645V20.192C180.645 17.536 181.637 16.576 182.853 16.576C184.053 16.576 184.565 17.248 184.645 18.208C184.677 18.64 184.677 19.008 184.677 19.408V24H186.437V19.216C186.437 18.528 186.421 18.144 186.389 17.712ZM196.396 15.504H194.636V16.656L194.076 15.808C193.644 15.472 192.764 15.28 192.06 15.28C189.868 15.28 187.948 16.752 187.948 19.856C187.948 22.352 189.372 24.144 191.82 24.144C192.684 24.144 193.516 23.888 193.996 23.504L194.636 22.576V22.752C194.636 23.056 194.636 23.36 194.62 23.728C194.556 25.248 193.676 26.08 192.14 26.08C190.828 26.08 190.044 25.456 189.932 24.544L189.916 24.4H188.188L188.204 24.56C188.38 26.384 189.676 27.408 192.124 27.408C194.684 27.408 196.284 26.112 196.38 23.536C196.396 23.072 196.396 22.416 196.396 21.888V15.504ZM192.172 22.864C190.652 22.864 189.804 21.536 189.804 19.696C189.804 17.584 190.86 16.56 192.252 16.56C193.388 16.56 194.636 17.328 194.636 19.392V19.76C194.636 22.032 193.5 22.864 192.172 22.864ZM208.204 20.352L209.404 24H211.308L207.452 12.96H205.18L201.212 24H203.084L204.284 20.352H208.204ZM204.748 18.96L206.284 14.416L207.74 18.96H204.748ZM219.952 17.712C219.792 16.224 218.752 15.28 216.928 15.28C216.08 15.28 215.456 15.424 214.784 15.936L214.208 16.912V15.504H212.448V24H214.208V20.192C214.208 17.536 215.2 16.576 216.416 16.576C217.616 16.576 218.128 17.248 218.208 18.208C218.24 18.64 218.24 19.008 218.24 19.408V24H220V19.216C220 18.528 219.984 18.144 219.952 17.712ZM229.959 12.24H228.199V16.656L227.639 15.808C227.207 15.472 226.327 15.28 225.623 15.28C223.431 15.28 221.511 16.784 221.511 19.888C221.511 22.384 222.903 24.224 225.335 24.224C226.199 24.224 227.079 23.968 227.559 23.584L228.199 22.656V24H229.959V12.24ZM225.735 22.944C224.215 22.944 223.367 21.584 223.367 19.744C223.367 17.632 224.423 16.56 225.815 16.56C226.951 16.56 228.199 17.328 228.199 19.392V19.84C228.199 22.112 227.063 22.944 225.735 22.944ZM84.12 40.152C84.008 39 83.592 38.04 82.6 37.608C83.768 37.256 84.648 36.408 84.648 34.968C84.648 33.08 83.448 32.232 81.848 32.024C81.32 31.96 80.92 31.96 80.328 31.96H76.52V43H78.28V38.392H79.992C80.264 38.392 80.536 38.392 80.808 38.408C81.816 38.472 82.248 39.208 82.392 40.376C82.52 41.592 82.664 42.28 82.952 43H84.888C84.44 42.392 84.248 41.544 84.12 40.152ZM78.28 37.032V33.352H80.232C80.68 33.352 80.968 33.368 81.256 33.416C82.2 33.544 82.792 34.024 82.792 35.192C82.792 36.36 82.072 36.904 81.112 37C80.84 37.032 80.568 37.032 80.12 37.032H78.28ZM93.5723 38.536C93.5723 36.136 92.2443 34.28 89.7803 34.28C87.3323 34.28 85.6203 36.088 85.6203 38.776C85.6203 41.784 87.3323 43.224 89.6043 43.224C91.4603 43.224 93.0763 42.264 93.4443 40.248H91.6683C91.4923 41.32 90.6923 41.944 89.6683 41.944C88.5163 41.944 87.5883 41.272 87.4443 39.24H93.5403C93.5723 38.936 93.5723 38.696 93.5723 38.536ZM89.7163 35.56C90.9483 35.56 91.6363 36.44 91.7643 38.008H87.4603C87.6523 36.376 88.5163 35.56 89.7163 35.56ZM97.9806 34.28C96.0926 34.28 94.8446 35.24 94.8446 36.824C94.8446 38.312 95.9966 38.968 97.5486 39.368C98.9886 39.752 99.5646 40.152 99.5646 40.888C99.5646 41.624 98.9086 41.976 98.0926 41.976C97.2126 41.976 96.4926 41.544 96.2846 40.456H94.5086C94.7486 42.376 96.1406 43.224 98.0286 43.224C99.8846 43.224 101.341 42.408 101.341 40.76C101.341 39.256 100.365 38.52 98.5086 38.04C97.2446 37.704 96.6206 37.384 96.6206 36.616C96.6206 35.976 97.0206 35.512 97.8526 35.512C98.7166 35.512 99.2446 36.04 99.4206 36.936H101.213C101.021 35.384 99.9326 34.28 97.9806 34.28ZM110.166 38.536C110.166 36.136 108.838 34.28 106.374 34.28C103.926 34.28 102.214 36.088 102.214 38.776C102.214 41.784 103.926 43.224 106.198 43.224C108.054 43.224 109.67 42.264 110.038 40.248H108.262C108.086 41.32 107.286 41.944 106.262 41.944C105.11 41.944 104.182 41.272 104.038 39.24H110.134C110.166 38.936 110.166 38.696 110.166 38.536ZM106.31 35.56C107.542 35.56 108.23 36.44 108.358 38.008H104.054C104.246 36.376 105.11 35.56 106.31 35.56ZM116.734 43H118.478C118.35 42.056 118.318 41.48 118.318 40.84V37.848C118.318 37.448 118.302 37 118.27 36.648C118.126 35.208 117.262 34.28 115.07 34.28C113.134 34.28 111.742 35.336 111.63 37.192H113.39C113.486 36.136 114.014 35.56 115.038 35.56C116.046 35.56 116.478 36.04 116.526 36.728C116.558 37.048 116.558 37.336 116.558 37.656V37.864H116.014C112.798 37.864 111.294 38.888 111.294 40.776C111.294 42.36 112.526 43.224 114.03 43.224C114.83 43.224 115.566 43.08 116.142 42.68L116.574 41.768L116.734 43ZM114.67 41.944C113.742 41.944 113.15 41.528 113.15 40.632C113.15 39.336 114.494 38.872 116.558 39.032V39.816C116.558 41.192 115.774 41.944 114.67 41.944ZM124.349 34.296C123.917 34.296 123.421 34.472 123.037 34.776L122.317 35.944V34.504H120.557V43H122.317V38.584C122.317 36.488 123.325 35.656 124.941 35.768V34.392C124.765 34.328 124.589 34.296 124.349 34.296ZM129.529 34.28C127.305 34.28 125.417 35.896 125.417 38.792C125.417 41.816 127.097 43.224 129.321 43.224C131.321 43.224 132.793 42.216 133.193 40.184H131.401C131.145 41.336 130.425 41.944 129.417 41.944C128.233 41.944 127.273 40.968 127.273 38.664C127.273 36.536 128.249 35.56 129.481 35.56C130.521 35.56 131.209 36.152 131.465 37.448H133.241C133.033 35.576 131.673 34.28 129.529 34.28ZM142.264 36.712C142.104 35.224 141.064 34.28 139.24 34.28C138.392 34.28 137.768 34.424 137.096 34.936L136.52 35.912V31.16H134.76V43H136.52V39.192C136.52 36.536 137.512 35.608 138.728 35.576C139.928 35.56 140.44 36.248 140.52 37.208C140.552 37.64 140.552 38.008 140.552 38.408V43H142.312V38.216C142.312 37.528 142.296 37.144 142.264 36.712ZM149.936 43V31.96H148.176V43H149.936ZM159.702 36.712C159.542 35.224 158.502 34.28 156.678 34.28C155.83 34.28 155.206 34.424 154.534 34.936L153.958 35.912V34.504H152.198V43H153.958V39.192C153.958 36.536 154.95 35.576 156.166 35.576C157.366 35.576 157.878 36.248 157.958 37.208C157.99 37.64 157.99 38.008 157.99 38.408V43H159.75V38.216C159.75 37.528 159.734 37.144 159.702 36.712ZM164.637 34.28C162.749 34.28 161.501 35.24 161.501 36.824C161.501 38.312 162.653 38.968 164.205 39.368C165.645 39.752 166.221 40.152 166.221 40.888C166.221 41.624 165.565 41.976 164.749 41.976C163.869 41.976 163.149 41.544 162.941 40.456H161.165C161.405 42.376 162.797 43.224 164.685 43.224C166.541 43.224 167.997 42.408 167.997 40.76C167.997 39.256 167.021 38.52 165.165 38.04C163.901 37.704 163.277 37.384 163.277 36.616C163.277 35.976 163.677 35.512 164.509 35.512C165.373 35.512 165.901 36.04 166.077 36.936H167.869C167.677 35.384 166.589 34.28 164.637 34.28ZM171.606 35.8H173.27V34.568H171.606V32.536H169.862V34.568H168.662V35.8H169.862V40.408C169.862 40.888 169.862 41.256 169.878 41.544C169.958 42.664 170.534 43.16 171.862 43.16C172.294 43.16 172.71 43.128 173.158 43.064V41.848C172.006 41.96 171.686 41.784 171.622 40.952C171.606 40.728 171.606 40.536 171.606 40.248V35.8ZM175.75 31.544C175.158 31.544 174.726 31.976 174.726 32.552C174.726 33.144 175.158 33.576 175.75 33.576C176.342 33.576 176.79 33.144 176.79 32.552C176.79 31.976 176.342 31.544 175.75 31.544ZM176.63 43V34.504H174.87V43H176.63ZM180.981 35.8H182.645V34.568H180.981V32.536H179.237V34.568H178.037V35.8H179.237V40.408C179.237 40.888 179.237 41.256 179.253 41.544C179.333 42.664 179.909 43.16 181.237 43.16C181.669 43.16 182.085 43.128 182.533 43.064V41.848C181.381 41.96 181.061 41.784 180.997 40.952C180.981 40.728 180.981 40.536 180.981 40.248V35.8ZM191.653 34.504H189.909V38.504C189.909 40.968 188.981 41.912 187.749 41.912C186.661 41.912 186.053 41.304 185.925 40.376C185.877 39.944 185.861 39.48 185.861 39.208V34.504H184.117V39.56C184.117 40.248 184.133 40.632 184.197 41.064C184.389 42.232 185.413 43.224 187.173 43.224C188.021 43.224 188.645 43.08 189.317 42.6L189.909 41.544V43H191.653V34.504ZM195.997 35.8H197.661V34.568H195.997V32.536H194.253V34.568H193.053V35.8H194.253V40.408C194.253 40.888 194.253 41.256 194.269 41.544C194.349 42.664 194.925 43.16 196.253 43.16C196.685 43.16 197.101 43.128 197.549 43.064V41.848C196.397 41.96 196.077 41.784 196.013 40.952C195.997 40.728 195.997 40.536 195.997 40.248V35.8ZM206.385 38.536C206.385 36.136 205.057 34.28 202.593 34.28C200.145 34.28 198.433 36.088 198.433 38.776C198.433 41.784 200.145 43.224 202.417 43.224C204.273 43.224 205.889 42.264 206.257 40.248H204.481C204.305 41.32 203.505 41.944 202.481 41.944C201.329 41.944 200.401 41.272 200.257 39.24H206.353C206.385 38.936 206.385 38.696 206.385 38.536ZM202.529 35.56C203.761 35.56 204.449 36.44 204.577 38.008H200.273C200.465 36.376 201.329 35.56 202.529 35.56ZM216.89 32.024C216.378 31.96 215.978 31.96 215.386 31.96H211.77V43H213.53V38.648H215.386C215.978 38.648 216.378 38.648 216.89 38.584C218.49 38.376 219.802 37.256 219.802 35.304C219.802 33.352 218.618 32.248 216.89 32.024ZM216.554 37.16C216.266 37.208 215.882 37.224 215.434 37.224H213.53V33.384H215.434C215.882 33.384 216.266 33.4 216.554 33.448C217.322 33.592 217.946 34.136 217.946 35.304C217.946 36.472 217.322 37.016 216.554 37.16ZM228.576 34.504H226.704L224.352 41.704L221.968 34.504H220.032L223.28 43H225.328L228.576 34.504ZM231.825 35.8H233.489V34.568H231.825V32.536H230.081V34.568H228.881V35.8H230.081V40.408C230.081 40.888 230.081 41.256 230.097 41.544C230.177 42.664 230.753 43.16 232.081 43.16C232.513 43.16 232.929 43.128 233.377 43.064V41.848C232.225 41.96 231.905 41.784 231.841 40.952C231.825 40.728 231.825 40.536 231.825 40.248V35.8ZM235.76 40.888C235.072 40.888 234.592 41.368 234.592 42.056C234.592 42.728 235.072 43.224 235.76 43.224C236.432 43.224 236.928 42.728 236.928 42.056C236.928 41.368 236.432 40.888 235.76 40.888ZM250.152 41.544H244.28V31.96H242.52V43H250.152V41.544ZM253.606 35.8H255.27V34.568H253.606V32.536H251.862V34.568H250.662V35.8H251.862V40.408C251.862 40.888 251.862 41.256 251.878 41.544C251.958 42.664 252.534 43.16 253.862 43.16C254.294 43.16 254.71 43.128 255.158 43.064V41.848C254.006 41.96 253.686 41.784 253.622 40.952C253.606 40.728 253.606 40.536 253.606 40.248V35.8ZM264.49 31.24H262.73V35.656L262.17 34.808C261.738 34.472 260.858 34.28 260.154 34.28C257.962 34.28 256.042 35.784 256.042 38.888C256.042 41.384 257.434 43.224 259.866 43.224C260.73 43.224 261.61 42.968 262.09 42.584L262.73 41.656V43H264.49V31.24ZM260.266 41.944C258.746 41.944 257.898 40.584 257.898 38.744C257.898 36.632 258.954 35.56 260.346 35.56C261.482 35.56 262.73 36.328 262.73 38.392V38.84C262.73 41.112 261.594 41.944 260.266 41.944ZM267.417 40.888C266.729 40.888 266.249 41.368 266.249 42.056C266.249 42.728 266.729 43.224 267.417 43.224C268.089 43.224 268.585 42.728 268.585 42.056C268.585 41.368 268.089 40.888 267.417 40.888Z" fill="black"/>
<path d="M65 0V57" stroke="#F79E22" stroke-miterlimit="10"/>
</svg>
